G04 EAGLE Gerber X2 export*
%TF.Part,Single*%
%TF.FileFunction,Profile,NP*%
%TF.FilePolarity,Positive*%
%TF.GenerationSoftware,Autodesk,EAGLE,9.4.0*%
%TF.CreationDate,2020-05-12T08:47:14Z*%
G75*
%MOIN*%
%FSLAX36Y36*%
%LPD*%
%INBoard Outline*%
%AMOC8*
5,1,8,0,0,1.08239X$1,22.5*%
G01*
%ADD10C,0.010000*%


D10*
X0Y0D02*
X551181Y0D01*
X551181Y551181D01*
X0Y551181D01*
X0Y0D01*
X78740Y274485D02*
X78493Y272288D01*
X78001Y270133D01*
X77270Y268046D01*
X76311Y266054D01*
X75135Y264181D01*
X73756Y262453D01*
X72193Y260889D01*
X70464Y259511D01*
X68592Y258335D01*
X66600Y257375D01*
X64513Y256645D01*
X62358Y256153D01*
X60161Y255906D01*
X57950Y255906D01*
X55753Y256153D01*
X53597Y256645D01*
X51510Y257375D01*
X49518Y258335D01*
X47646Y259511D01*
X45917Y260889D01*
X44354Y262453D01*
X42976Y264181D01*
X41799Y266054D01*
X40840Y268046D01*
X40110Y270133D01*
X39618Y272288D01*
X39370Y274485D01*
X39370Y276696D01*
X39618Y278893D01*
X40110Y281049D01*
X40840Y283136D01*
X41799Y285128D01*
X42976Y287000D01*
X44354Y288728D01*
X45917Y290292D01*
X47646Y291670D01*
X49518Y292846D01*
X51510Y293806D01*
X53597Y294536D01*
X55753Y295028D01*
X57950Y295276D01*
X60161Y295276D01*
X62358Y295028D01*
X64513Y294536D01*
X66600Y293806D01*
X68592Y292846D01*
X70464Y291670D01*
X72193Y290292D01*
X73756Y288728D01*
X75135Y287000D01*
X76311Y285128D01*
X77270Y283136D01*
X78001Y281049D01*
X78493Y278893D01*
X78740Y276696D01*
X78740Y274485D01*
X511811Y274485D02*
X511563Y272288D01*
X511071Y270133D01*
X510341Y268046D01*
X509382Y266054D01*
X508206Y264181D01*
X506827Y262453D01*
X505264Y260889D01*
X503535Y259511D01*
X501663Y258335D01*
X499671Y257375D01*
X497584Y256645D01*
X495429Y256153D01*
X493231Y255906D01*
X491021Y255906D01*
X488823Y256153D01*
X486668Y256645D01*
X484581Y257375D01*
X482589Y258335D01*
X480717Y259511D01*
X478988Y260889D01*
X477425Y262453D01*
X476046Y264181D01*
X474870Y266054D01*
X473911Y268046D01*
X473180Y270133D01*
X472688Y272288D01*
X472441Y274485D01*
X472441Y276696D01*
X472688Y278893D01*
X473180Y281049D01*
X473911Y283136D01*
X474870Y285128D01*
X476046Y287000D01*
X477425Y288728D01*
X478988Y290292D01*
X480717Y291670D01*
X482589Y292846D01*
X484581Y293806D01*
X486668Y294536D01*
X488823Y295028D01*
X491021Y295276D01*
X493231Y295276D01*
X495429Y295028D01*
X497584Y294536D01*
X499671Y293806D01*
X501663Y292846D01*
X503535Y291670D01*
X505264Y290292D01*
X506827Y288728D01*
X508206Y287000D01*
X509382Y285128D01*
X510341Y283136D01*
X511071Y281049D01*
X511563Y278893D01*
X511811Y276696D01*
X511811Y274485D01*
X334646Y273481D02*
X334345Y269274D01*
X333744Y265098D01*
X332848Y260977D01*
X331659Y256929D01*
X330185Y252977D01*
X328433Y249140D01*
X326411Y245437D01*
X324131Y241889D01*
X321603Y238512D01*
X318840Y235324D01*
X315857Y232341D01*
X312669Y229578D01*
X309292Y227051D01*
X305744Y224770D01*
X302041Y222748D01*
X298204Y220996D01*
X294252Y219522D01*
X290205Y218333D01*
X286083Y217437D01*
X281907Y216836D01*
X277700Y216535D01*
X273481Y216535D01*
X269274Y216836D01*
X265098Y217437D01*
X260977Y218333D01*
X256929Y219522D01*
X252977Y220996D01*
X249140Y222748D01*
X245437Y224770D01*
X241889Y227051D01*
X238512Y229578D01*
X235324Y232341D01*
X232341Y235324D01*
X229578Y238512D01*
X227051Y241889D01*
X224770Y245437D01*
X222748Y249140D01*
X220996Y252977D01*
X219522Y256929D01*
X218333Y260977D01*
X217437Y265098D01*
X216836Y269274D01*
X216535Y273481D01*
X216535Y277700D01*
X216836Y281907D01*
X217437Y286083D01*
X218333Y290205D01*
X219522Y294252D01*
X220996Y298204D01*
X222748Y302041D01*
X224770Y305744D01*
X227051Y309292D01*
X229578Y312669D01*
X232341Y315857D01*
X235324Y318840D01*
X238512Y321603D01*
X241889Y324131D01*
X245437Y326411D01*
X249140Y328433D01*
X252977Y330185D01*
X256929Y331659D01*
X260977Y332848D01*
X265098Y333744D01*
X269274Y334345D01*
X273481Y334646D01*
X277700Y334646D01*
X281907Y334345D01*
X286083Y333744D01*
X290205Y332848D01*
X294252Y331659D01*
X298204Y330185D01*
X302041Y328433D01*
X305744Y326411D01*
X309292Y324131D01*
X312669Y321603D01*
X315857Y318840D01*
X318840Y315857D01*
X321603Y312669D01*
X324131Y309292D01*
X326411Y305744D01*
X328433Y302041D01*
X330185Y298204D01*
X331659Y294252D01*
X332848Y290205D01*
X333744Y286083D01*
X334345Y281907D01*
X334646Y277700D01*
X334646Y273481D01*
X301181Y97168D02*
X300935Y94666D01*
X300444Y92200D01*
X299714Y89794D01*
X298752Y87471D01*
X297567Y85253D01*
X296170Y83163D01*
X294575Y81219D01*
X292797Y79441D01*
X290853Y77846D01*
X288763Y76449D01*
X286545Y75264D01*
X284222Y74302D01*
X281816Y73572D01*
X279350Y73081D01*
X276848Y72835D01*
X274333Y72835D01*
X271831Y73081D01*
X269365Y73572D01*
X266959Y74302D01*
X264636Y75264D01*
X262419Y76449D01*
X260328Y77846D01*
X258384Y79441D01*
X256606Y81219D01*
X255011Y83163D01*
X253614Y85253D01*
X252429Y87471D01*
X251467Y89794D01*
X250737Y92200D01*
X250246Y94666D01*
X250000Y97168D01*
X250000Y99682D01*
X250246Y102185D01*
X250737Y104651D01*
X251467Y107057D01*
X252429Y109380D01*
X253614Y111597D01*
X255011Y113688D01*
X256606Y115632D01*
X258384Y117409D01*
X260328Y119005D01*
X262419Y120401D01*
X264636Y121587D01*
X266959Y122549D01*
X269365Y123279D01*
X271831Y123769D01*
X274333Y124016D01*
X276848Y124016D01*
X279350Y123769D01*
X281816Y123279D01*
X284222Y122549D01*
X286545Y121587D01*
X288763Y120401D01*
X290853Y119005D01*
X292797Y117409D01*
X294575Y115632D01*
X296170Y113688D01*
X297567Y111597D01*
X298752Y109380D01*
X299714Y107057D01*
X300444Y104651D01*
X300935Y102185D01*
X301181Y99682D01*
X301181Y97168D01*
M02*
