G04 EAGLE Gerber X2 export*
%TF.Part,Single*%
%TF.FileFunction,Copper,L1,Top,Mixed*%
%TF.FilePolarity,Positive*%
%TF.GenerationSoftware,Autodesk,EAGLE,9.4.0*%
%TF.CreationDate,2020-05-12T08:47:14Z*%
G75*
%MOIN*%
%FSLAX36Y36*%
%LPD*%
%INTop Copper Layer*%
%AMOC8*
5,1,8,0,0,1.08239X$1,22.5*%
G01*
%ADD10C,0.013500*%
%ADD11C,0.039685*%
%ADD12C,0.005906*%
%ADD13C,0.004000*%
%ADD14C,0.007874*%


D10*
X362242Y404663D02*
X362242Y431163D01*
X363742Y431163D01*
X363742Y404663D01*
X362242Y404663D01*
X362242Y417488D02*
X363742Y417488D01*
X363742Y430313D02*
X362242Y430313D01*
X337242Y431163D02*
X337242Y404663D01*
X337242Y431163D02*
X338742Y431163D01*
X338742Y404663D01*
X337242Y404663D01*
X337242Y417488D02*
X338742Y417488D01*
X338742Y430313D02*
X337242Y430313D01*
X312242Y431163D02*
X312242Y404663D01*
X312242Y431163D02*
X313742Y431163D01*
X313742Y404663D01*
X312242Y404663D01*
X312242Y417488D02*
X313742Y417488D01*
X313742Y430313D02*
X312242Y430313D01*
X287242Y431163D02*
X287242Y404663D01*
X287242Y431163D02*
X288742Y431163D01*
X288742Y404663D01*
X287242Y404663D01*
X287242Y417488D02*
X288742Y417488D01*
X288742Y430313D02*
X287242Y430313D01*
X262242Y431163D02*
X262242Y404663D01*
X262242Y431163D02*
X263742Y431163D01*
X263742Y404663D01*
X262242Y404663D01*
X262242Y417488D02*
X263742Y417488D01*
X263742Y430313D02*
X262242Y430313D01*
X237242Y431163D02*
X237242Y404663D01*
X237242Y431163D02*
X238742Y431163D01*
X238742Y404663D01*
X237242Y404663D01*
X237242Y417488D02*
X238742Y417488D01*
X238742Y430313D02*
X237242Y430313D01*
X212242Y431163D02*
X212242Y404663D01*
X212242Y431163D02*
X213742Y431163D01*
X213742Y404663D01*
X212242Y404663D01*
X212242Y417488D02*
X213742Y417488D01*
X213742Y430313D02*
X212242Y430313D01*
X187242Y431163D02*
X187242Y404663D01*
X187242Y431163D02*
X188742Y431163D01*
X188742Y404663D01*
X187242Y404663D01*
X187242Y417488D02*
X188742Y417488D01*
X188742Y430313D02*
X187242Y430313D01*
X187242Y454663D02*
X187242Y481163D01*
X188742Y481163D01*
X188742Y454663D01*
X187242Y454663D01*
X187242Y467488D02*
X188742Y467488D01*
X188742Y480313D02*
X187242Y480313D01*
X212242Y481163D02*
X212242Y454663D01*
X212242Y481163D02*
X213742Y481163D01*
X213742Y454663D01*
X212242Y454663D01*
X212242Y467488D02*
X213742Y467488D01*
X213742Y480313D02*
X212242Y480313D01*
X237242Y481163D02*
X237242Y454663D01*
X237242Y481163D02*
X238742Y481163D01*
X238742Y454663D01*
X237242Y454663D01*
X237242Y467488D02*
X238742Y467488D01*
X238742Y480313D02*
X237242Y480313D01*
X262242Y481163D02*
X262242Y454663D01*
X262242Y481163D02*
X263742Y481163D01*
X263742Y454663D01*
X262242Y454663D01*
X262242Y467488D02*
X263742Y467488D01*
X263742Y480313D02*
X262242Y480313D01*
X287242Y481163D02*
X287242Y454663D01*
X287242Y481163D02*
X288742Y481163D01*
X288742Y454663D01*
X287242Y454663D01*
X287242Y467488D02*
X288742Y467488D01*
X288742Y480313D02*
X287242Y480313D01*
X312242Y481163D02*
X312242Y454663D01*
X312242Y481163D02*
X313742Y481163D01*
X313742Y454663D01*
X312242Y454663D01*
X312242Y467488D02*
X313742Y467488D01*
X313742Y480313D02*
X312242Y480313D01*
X337242Y481163D02*
X337242Y454663D01*
X337242Y481163D02*
X338742Y481163D01*
X338742Y454663D01*
X337242Y454663D01*
X337242Y467488D02*
X338742Y467488D01*
X338742Y480313D02*
X337242Y480313D01*
X362242Y481163D02*
X362242Y454663D01*
X362242Y481163D02*
X363742Y481163D01*
X363742Y454663D01*
X362242Y454663D01*
X362242Y467488D02*
X363742Y467488D01*
X363742Y480313D02*
X362242Y480313D01*
X387242Y431163D02*
X387242Y404663D01*
X387242Y431163D02*
X388742Y431163D01*
X388742Y404663D01*
X387242Y404663D01*
X387242Y417488D02*
X388742Y417488D01*
X388742Y430313D02*
X387242Y430313D01*
X162242Y431163D02*
X162242Y404663D01*
X162242Y431163D02*
X163742Y431163D01*
X163742Y404663D01*
X162242Y404663D01*
X162242Y417488D02*
X163742Y417488D01*
X163742Y430313D02*
X162242Y430313D01*
D11*
X98425Y433071D03*
X452756Y433071D03*
X39370Y157480D03*
X98425Y157480D03*
X39370Y98425D03*
X98425Y98425D03*
X216535Y39370D03*
X39370Y39370D03*
X98425Y39370D03*
X157480Y39370D03*
X511811Y157480D03*
X452756Y157480D03*
X511811Y98425D03*
X452756Y98425D03*
X334646Y39370D03*
X511811Y39370D03*
X452756Y39370D03*
X393701Y39370D03*
D12*
X262992Y467913D02*
X262992Y491151D01*
X224234Y529909D01*
X73797Y529909D01*
X20479Y476592D01*
X20479Y397638D01*
X110637Y307480D01*
X110637Y250400D01*
X39370Y179134D01*
X39370Y157480D01*
X98425Y216535D02*
X124016Y242126D01*
X98425Y216535D02*
X98425Y157480D01*
X124016Y242126D02*
X124016Y314173D01*
X33858Y404331D01*
X33858Y467323D01*
X83465Y516929D01*
X212598Y516929D01*
X237992Y491535D02*
X237992Y467913D01*
X237992Y491535D02*
X212598Y516929D01*
X68898Y127953D02*
X39370Y98425D01*
X68898Y127953D02*
X118110Y127953D01*
X137008Y146850D01*
X137008Y320079D01*
X48031Y409055D01*
X48031Y460236D01*
X91339Y503543D01*
X200000Y503543D01*
X212992Y490551D02*
X212992Y467913D01*
X212992Y490551D02*
X200000Y503543D01*
X150000Y137008D02*
X111417Y98425D01*
X98425Y98425D01*
X150000Y325552D02*
X61595Y413957D01*
X61595Y450787D01*
X78721Y467913D01*
X187992Y467913D01*
X150000Y325552D02*
X150000Y137008D01*
X67214Y69264D02*
X39370Y39370D01*
X67214Y69264D02*
X116899Y69264D01*
X162992Y115357D01*
X162992Y371654D01*
X187992Y396654D02*
X187992Y417913D01*
X187992Y396654D02*
X162992Y371654D01*
X212992Y394094D02*
X212992Y417913D01*
X107087Y39370D02*
X98425Y39370D01*
X107087Y39370D02*
X176673Y108957D01*
X176673Y357776D01*
X212992Y394094D01*
X157480Y59055D02*
X157480Y39370D01*
X157480Y59055D02*
X189764Y91339D01*
X189764Y347244D01*
X237992Y395472D02*
X237992Y417913D01*
X237992Y395472D02*
X189764Y347244D01*
X216535Y62992D02*
X216535Y39370D01*
X216535Y62992D02*
X203445Y76083D01*
X203445Y334925D01*
X262992Y394472D01*
X262992Y417913D01*
X287992Y467913D02*
X287992Y490551D01*
X328937Y531496D01*
X475591Y531496D01*
X531496Y475591D01*
X531496Y393701D01*
X441339Y303543D01*
X441339Y251575D01*
X511811Y181102D01*
X511811Y157480D01*
X312992Y467913D02*
X312992Y490256D01*
X339370Y516634D01*
X467618Y516634D01*
X518504Y465748D01*
X518504Y400394D01*
X428346Y310236D01*
X428346Y243701D01*
X452756Y219291D01*
X452756Y157480D01*
X337992Y490748D02*
X349803Y502559D01*
X458071Y502559D02*
X502756Y457874D01*
X502756Y404331D01*
X414961Y316535D01*
X414961Y148031D01*
X435037Y127955D01*
X482281Y127955D01*
X337992Y467913D02*
X337992Y490748D01*
X349803Y502559D02*
X458071Y502559D01*
X482281Y127955D02*
X511811Y98425D01*
X487429Y410660D02*
X487429Y451941D01*
X401969Y325199D02*
X401969Y138189D01*
X441732Y98425D01*
X452756Y98425D01*
X471457Y467913D02*
X362992Y467913D01*
X471457Y467913D02*
X487429Y451941D01*
X487429Y410660D02*
X401969Y325199D01*
X362992Y395276D02*
X362992Y417913D01*
X362992Y395276D02*
X388583Y369685D01*
X388583Y118504D01*
X482283Y68898D02*
X511811Y39370D01*
X438189Y68898D02*
X388583Y118504D01*
X438189Y68898D02*
X482283Y68898D01*
X375197Y357874D02*
X337992Y395079D01*
X375197Y109487D02*
X445314Y39370D01*
X452756Y39370D01*
X337992Y395079D02*
X337992Y417913D01*
X375197Y357874D02*
X375197Y109487D01*
X312992Y395669D02*
X312992Y417913D01*
X312992Y395669D02*
X361811Y346850D01*
X393701Y61024D02*
X393701Y39370D01*
X393701Y61024D02*
X361811Y92913D01*
X361811Y346850D01*
X287992Y394783D02*
X287992Y417913D01*
X287992Y394783D02*
X348130Y334646D01*
X348130Y76083D02*
X335827Y63780D01*
X335827Y40551D01*
D13*
X334646Y39370D01*
D12*
X348130Y76083D02*
X348130Y334646D01*
D14*
X102953Y417913D02*
X98425Y433071D01*
X102953Y417913D02*
X162992Y417913D01*
X387992Y417913D02*
X448228Y417913D01*
X452756Y433071D01*
M02*
