G04 EAGLE Gerber X2 export*
%TF.Part,Single*%
%TF.FileFunction,Legend,Bot,1*%
%TF.FilePolarity,Positive*%
%TF.GenerationSoftware,Autodesk,EAGLE,9.4.0*%
%TF.CreationDate,2020-05-12T08:47:14Z*%
G75*
%MOIN*%
%FSLAX36Y36*%
%LPD*%
%INBottom Silkscreen*%
%AMOC8*
5,1,8,0,0,1.08239X$1,22.5*%
G01*
%ADD10C,0.004000*%


D10*
X450756Y513765D02*
X450756Y494126D01*
X440937Y494126D01*
X437663Y497399D01*
X437663Y510492D01*
X440937Y513765D01*
X450756Y513765D01*
X425732Y494126D02*
X419186Y494126D01*
X425732Y494126D02*
X429005Y497399D01*
X429005Y503945D01*
X425732Y507219D01*
X419186Y507219D01*
X415913Y503945D01*
X415913Y500672D01*
X429005Y500672D01*
X407254Y494126D02*
X397435Y494126D01*
X394162Y497399D01*
X397435Y500672D01*
X403981Y500672D01*
X407254Y503945D01*
X403981Y507219D01*
X394162Y507219D01*
X385503Y507219D02*
X382230Y507219D01*
X382230Y494126D01*
X385503Y494126D02*
X378957Y494126D01*
X382230Y513765D02*
X382230Y517038D01*
X364457Y487580D02*
X361183Y487580D01*
X357910Y490853D01*
X357910Y507219D01*
X367730Y507219D01*
X371003Y503945D01*
X371003Y497399D01*
X367730Y494126D01*
X357910Y494126D01*
X349252Y494126D02*
X349252Y507219D01*
X339433Y507219D01*
X336159Y503945D01*
X336159Y494126D01*
X324228Y494126D02*
X317682Y494126D01*
X324228Y494126D02*
X327501Y497399D01*
X327501Y503945D01*
X324228Y507219D01*
X317682Y507219D01*
X314409Y503945D01*
X314409Y500672D01*
X327501Y500672D01*
X292658Y494126D02*
X292658Y513765D01*
X292658Y494126D02*
X302477Y494126D01*
X305750Y497399D01*
X305750Y503945D01*
X302477Y507219D01*
X292658Y507219D01*
X262249Y513765D02*
X262249Y494126D01*
X252429Y494126D01*
X249156Y497399D01*
X249156Y503945D01*
X252429Y507219D01*
X262249Y507219D01*
X240498Y507219D02*
X240498Y497399D01*
X237225Y494126D01*
X227405Y494126D01*
X227405Y490853D02*
X227405Y507219D01*
X227405Y490853D02*
X230678Y487580D01*
X233951Y487580D01*
X196996Y494126D02*
X196996Y513765D01*
X196996Y503945D02*
X183903Y503945D01*
X183903Y494126D02*
X183903Y513765D01*
X175245Y497399D02*
X175245Y494126D01*
X175245Y497399D02*
X171972Y497399D01*
X171972Y494126D01*
X175245Y494126D01*
X142619Y494126D02*
X142619Y513765D01*
X142619Y500672D02*
X129526Y513765D01*
X139346Y503945D02*
X129526Y494126D01*
X120868Y507219D02*
X117595Y507219D01*
X117595Y494126D01*
X120868Y494126D02*
X114322Y494126D01*
X117595Y513765D02*
X117595Y517038D01*
X106367Y507219D02*
X106367Y494126D01*
X106367Y507219D02*
X103094Y507219D01*
X99821Y503945D01*
X99821Y494126D01*
X99821Y503945D02*
X96548Y507219D01*
X93275Y503945D01*
X93275Y494126D01*
M02*
